<svg width="1024" height="256" xmlns="http://www.w3.org/2000/svg"><path fill="#1b9eac" fill-rule="evenodd" d="M16 0C7.164 0 0 7.164 0 16v224c0 8.836 7.164 16 16 16h992c8.836 0 16-7.164 16-16V16c0-8.836-7.164-16-16-16Z"/><g fill="#fff" fill-rule="evenodd"><path d="M948.28 242.21h24.344v-79.056h35.472v-22.128h-95.152v22.128h35.336ZM849.328 244h24.564v-36.294l35.05-66.378h-25.806s-18.214 34.674-21.112 42.678h-.552c-2.898-8.004-20.836-42.678-20.836-42.678h-26.22l34.912 66.378ZM729.268 243h44.912c29.946 0 50.646-16.146 50.646-51.888s-20.7-50.784-52.026-50.784h-43.532Zm24.702-19.872v-63.204h17.312c16.56 0 28.29 6.762 28.29 31.188s-11.73 32.016-28.29 32.016ZM618.7 243h30.498l8.97-44.712c1.518-7.866 2.76-16.146 4.002-23.874h.69a297.095 297.095 0 0 0 4.002 23.874L676.108 243h31.05l17.802-102.672H701.5l-6.624 46.782c-1.242 10.626-2.622 21.528-3.864 32.568h-.69c-2.07-11.04-3.864-22.08-5.934-32.568l-10.764-46.782h-20.7l-10.488 46.782a1964.88 1964.88 0 0 0-6.072 32.568h-.552l-4.14-32.568-6.486-46.782h-25.254Z"/></g><g fill="#fff" fill-rule="evenodd"><path d="M377.97 244h24.702v-26.91l11.178-15.18L438 244h27.048l-36.846-61.548 31.05-41.124h-27.048L403.086 181.9h-.414v-40.572H377.97ZM277.268 244h44.912c29.946 0 50.646-16.146 50.646-51.888s-20.7-50.784-52.026-50.784h-43.532Zm24.702-19.872v-63.204h17.312c16.56 0 28.29 6.762 28.29 31.188s-11.73 32.016-28.29 32.016ZM247.868 244h24.702V141.328h-24.702Z"/></g><g fill="#fff" fill-rule="evenodd"><path d="M912.298 120H937V77.772h46.81V120h24.426V17.328H983.81v39.054H937V17.328h-24.702ZM811.288 120h55.778c22.356 0 40.158-9.384 40.158-30.36 0-13.662-7.866-21.39-18.216-24.15v-.552c8.28-3.174 13.386-13.11 13.386-22.218 0-19.734-16.974-25.392-38.226-25.392h-52.88Zm24.702-61.962V36.096h27.212c10.35 0 15.18 3.036 15.18 10.35 0 7.038-4.692 11.592-15.18 11.592Zm0 43.056v-24.84h29.282c12.006 0 17.94 3.312 17.94 11.73 0 8.832-6.072 13.11-17.94 13.11ZM746.28 120.21h24.344V41.154h35.472V19.026h-95.152v22.128h35.336Z"/></g><g fill="#fff" fill-rule="evenodd"><path d="M438.936 118.21h21.76V83.53c0-10.064-1.904-25.16-3.128-35.088h.544l8.16 24.208 13.736 36.992h13.328l13.6-36.992 8.432-24.208h.544c-1.224 9.928-3.128 25.024-3.128 35.088v34.68h22.168V17.026h-26.384l-15.504 43.656c-1.904 5.848-3.536 12.24-5.576 18.496h-.68c-1.904-6.256-3.536-12.648-5.576-18.496l-16.048-43.656h-26.248ZM373.28 118.21h24.344V39.154h35.472V17.026h-95.152v22.128h35.336ZM293.8 121.904c14.144 0 32.656-5.576 39.728-12.376V62.2h-43.672v19.856h22.048v16.32c-2.176 1.632-11.984 2.584-15.656 2.584-18.768 0-33.744-11.696-33.744-31.824 0-19.72 16.744-31.416 31.704-31.416 8.432 0 19.736 3.4 24.632 7.888l12.92-15.504c-6.936-6.936-23.544-13.192-38.368-13.192-27.064 0-55.776 19.312-55.776 53.04 0 34.272 28.032 51.952 56.184 51.952ZM142.696 118h95.648V95.6H167.04V16.816h-24.344Z"/></g><path fill="#fff" fill-rule="evenodd" stroke="#fff" stroke-width="6.542" stroke-linecap="round" stroke-linejoin="round" d="M700.097 94.424c.452-1.129.903-2.257.903-3.499 0-.338-.339-.677-.564-.79-.226-.113-.79-.338-1.016.226-.564 1.241-1.241 2.37-1.918 3.611-.79 1.242-1.467 2.37-2.257 3.611-3.95 6.433-10.608 11.624-19.523 11.06-2.596-.113-5.53-2.709-5.981-5.53-1.58-9.028-1.467-19.749-.677-28.89 2.37-.79 5.303-1.24 8.125-1.58 2.934-.338 5.868-.564 8.125-.677.677-.338 1.354-1.692.451-2.37-2.821-.902-5.53-.902-8.238-.676-2.708.338-5.53.902-8.125 1.128.339-2.257.903-5.868 1.129-9.254l.338-4.175c.226-.903.339-1.58.564-1.919.339.113.677.339 1.016.678 1.467 1.128 2.257 2.257 4.401 2.482-.451-1.241-.903-2.031-1.354-2.708-.451-.79-1.016-1.467-1.58-2.144l-.564-.677c-.677-.79-1.242-1.693-2.144-2.145-.903-.677-2.257-.79-3.047.565-.452.79-.677 1.918-.79 2.821l-1.919 17.492c-2.482.79-7.56 2.37-10.043 3.047-.565.338-1.58.338-2.37.225-1.129-.113-1.693.903-1.58 1.693.677 1.467 2.144 2.144 3.611 2.144 3.498-1.015 6.771-2.257 10.157-3.047-.677 10.495-.903 20.99 1.354 30.808 1.805 3.724 5.417 6.546 9.366 6.546 10.495.112 17.943-6.997 22.345-14.897.564-.902 1.241-2.03 1.805-3.16Zm-51.737 14.331c.113-.225.451-.79 0-1.128-2.032-1.467-3.16-3.273-4.063-5.643-1.016-2.934-1.58-7.786-1.58-13.09-.113-5.304.226-11.172.452-16.138-.113-.677-.903-1.58-1.919-1.354-.79 0-1.128.677-1.467 1.242 0 .112-.113.338-.226.451-1.58 5.078-2.934 10.27-4.852 15.122-1.467 3.837-3.047 7.56-5.417 10.833-.79 1.016-1.58 2.257-2.37 3.386-.903 1.128-1.805 2.257-2.821 3.16-1.58 1.467-3.385 2.37-5.417 2.144-1.918-.452-2.708-2.37-3.047-4.063-.225-5.078.226-10.156.677-15.234.565-5.869 1.016-11.737.565-17.83-.452-1.13-1.919-2.935-3.724-1.693.451 6.545 0 12.864-.565 19.184-.338 4.401-.79 8.802-.902 13.316-.113 3.16.564 6.32 2.82 8.803 2.145 1.692 5.869 2.144 8.239.564 3.385-2.257 6.094-5.078 8.35-8.238 3.95-5.53 6.207-12.075 8.352-18.508-.226 6.997.112 14.897 2.257 20.426.677 1.58 3.16 4.176 5.53 4.74.45 0 .902-.226 1.128-.452Zm-47.337-10.833c2.144-3.837 3.047-8.238 2.37-12.978-.903-5.868-5.304-11.736-10.833-14.445-3.499-1.805-7.223-2.03-11.06-.677-2.934 1.129-5.755 3.724-7.786 6.207-.113-8.577 1.58-26.294 5.98-33.516 0-.226.226-.565.452-.79.677-.79 1.919-1.467 2.257-2.483.452-1.806-1.693-2.595-2.821-2.483-3.047 1.129-3.95 4.514-4.965 7.223-2.483 6.545-4.853 21.103-4.853 33.516 0 10.72 1.806 29.68 3.95 34.758.677 1.805.903 2.031 1.354 2.031.226 0 .564-.226.79-.903 0-.338.113-.564.113-.79.113-.225.113-.451.113-1.241 1.015.451 3.385.564 4.626.451 8.464-1.128 16.25-6.432 20.313-13.88Zm-3.047-2.821c-3.385 6.658-10.382 12.187-17.491 14.332-1.58.451-3.386.338-4.627-.113-.79-6.546-2.144-19.975-2.144-27.648 1.467-3.386 4.514-6.207 7.9-8.013 2.708-1.354 4.965-1.241 7.673-.338 3.498 1.241 6.32 3.61 8.238 6.77 2.483 4.289 2.596 10.609.451 15.01ZM29.742 112.383a1.912 1.912 0 0 1-1.002-.326c-.903-.565-.902-1.692-.45-2.37 2.482-1.354 4.964-3.046 7.108-5.078 1.919-1.805 3.386-3.837 4.176-6.32.903-2.934 1.355-6.206 1.58-9.592.452-4.852.339-9.93.451-14.783l.452-27.648c.225-1.58.564-3.047 1.129-4.514-6.771 1.918-13.655 3.838-20.877 5.305-1.242 0-2.596-.339-3.16-1.467-.226-.339-.566-1.355.224-1.58 10.044-2.257 19.975-4.966 29.793-7.787 1.354-.226 2.483.338 3.611.902.565.339.904 1.468.114 1.807-.677.564-1.58.79-2.483 1.015-.79.226-1.58.451-2.258.903a7.071 7.071 0 0 0-1.804 3.046c-.339 1.242-.452 2.484-.678 3.725L45.33 78.09c0 2.821-.113 5.755-.113 8.576-.113 2.934-.227 5.755-.791 8.576-.677 3.16-2.145 6.208-4.176 9.03 9.14-4.063 17.944-9.367 26.408-14.897.903-.564 2.256-.113 1.805 1.467l-.79 1.242-1.015 1.016c-10.946 7.56-22.231 13.88-34.193 18.619-.677.113-1.243.338-1.807.564-.282.057-.591.114-.916.1Zm58.809-.438c-3.95 0-7.562-2.823-9.367-6.547-2.257-9.817-2.031-20.311-1.354-30.806-3.385.79-6.658 2.031-10.156 3.047-1.467 0-2.934-.678-3.612-2.145-.112-.79.452-1.806 1.58-1.693.79.113 1.805.114 2.37-.225 2.482-.677 7.56-2.257 10.043-3.047l1.92-17.492c.112-.903.337-2.032.789-2.822.79-1.354 2.144-1.24 3.047-.563.902.452 1.467 1.353 2.144 2.143l.565.678c.564.677 1.128 1.354 1.58 2.144.451.677.902 1.468 1.353 2.71-2.144-.227-2.933-1.357-4.4-2.485-.339-.339-.677-.563-1.016-.676-.226.339-.339 1.015-.564 1.918l-.338 4.176c-.226 3.385-.79 6.997-1.13 9.254 2.596-.226 5.417-.79 8.126-1.13 2.708-.225 5.417-.224 8.238.678.903.678.226 2.031-.451 2.37-2.257.112-5.193.339-8.127.677-2.821.339-5.755.79-8.125 1.58-.79 9.141-.902 19.861.678 28.89.451 2.82 3.385 5.416 5.98 5.528 8.915.565 15.574-4.626 19.524-11.058.79-1.242 1.468-2.37 2.257-3.612.678-1.24 1.354-2.37 1.918-3.61.226-.565.79-.34 1.016-.227.226.112.565.452.565.79 0 1.242-.451 2.37-.903 3.499-.564 1.128-1.242 2.257-1.806 3.16-4.402 7.9-11.85 15.01-22.344 14.896ZM569.552 235.404c3.61-3.95 6.094-9.028 7.11-14.332 1.015-5.53.45-11.173-1.92-16.25-.902-2.032-2.482-4.176-4.513-5.643-1.129-.79-2.483-1.467-3.95-1.693-.339-.79-1.467-1.128-2.144-1.016-3.386.79-6.32 3.047-8.915 5.53-4.401 4.175-7.561 9.367-9.254 14.896-1.58 5.417-1.693 11.172.339 16.928 1.241 3.385 4.74 6.32 8.238 6.996 5.98 1.016 11.059-1.241 15.009-5.416Zm-2.709-34.42c3.047 2.257 5.417 5.191 5.981 8.69.677 3.95.677 8.125-.225 11.962-1.016 4.852-3.386 9.254-7.336 12.639-2.595 2.257-6.206 3.498-9.93 2.596-2.596-.565-5.191-2.596-5.869-5.304-1.128-5.079-.902-10.157.565-14.67 1.918-5.643 5.078-10.947 10.382-14.333l1.58-1.015c.564-.339 1.128-.678 1.692-1.129.903-.564 2.032-.564 3.16.564Zm-42.2 37.58c3.95-1.468 8.576-3.838 11.172-7.674.79-1.129.45-2.822.112-3.95-.79-1.693-2.37-2.934-3.837-3.386-2.595-.903-5.19-1.354-7.899-1.805l-8.125-1.355c-1.129-.225-2.257-.564-3.047-1.354-.564-.451-.79-1.354-.451-2.144.564-2.144 1.58-4.175 2.708-6.207 1.918-3.272 4.74-6.77 7.787-9.028.902-.677 1.805-1.128 2.934-1.128.79-.113 1.692.226 2.257.677.564.339 1.015.79 1.467 1.241.451.452.79 1.016 1.354 1.58.903-.338 1.467-1.015 1.467-1.692-.113-1.693-1.241-3.499-2.483-4.289-1.241-.79-2.483-1.241-3.95-1.241-3.047.451-5.755 2.031-8.012 3.95-4.401 3.837-7.448 9.93-9.366 14.783-.678 2.595 0 5.304 2.144 6.884 2.144 1.241 4.627 1.805 7.11 2.144 3.272.564 6.545.903 9.704 1.693 1.58.451 3.386.564 4.514 1.805.226.677.113 1.467-.451 2.032-4.288 3.724-9.254 5.642-14.783 6.545-2.032.338-4.176.677-6.207 0-1.129-.339-1.354-1.241-1.467-2.37 0-1.467.564-3.16.564-4.514 0-.226-.226-.564-.677-.677-.226 0-.564 0-.903.226-.903.677-1.354 1.692-1.693 2.708-.225 1.129-.564 3.837-.112 5.078.677 1.58 2.37 2.596 3.836 3.273 4.853.677 9.931-.113 14.332-1.806Z"/></svg>